<svg xmlns="http://www.w3.org/2000/svg" width="64" height="64" viewBox="0 0 64 64"><path fill="#006AC9" d="M21.6 23c0 3.1 1.9 5.7 4.6 6.7V16.3c-2.7 1-4.6 3.6-4.6 6.7z"/><path fill="#004A97" d="M31.3 16.3v13.4c2.7-1 4.6-3.7 4.6-6.7 0-3.1-1.9-5.7-4.6-6.7z"/><path fill="#023563" d="M31.3 29.7c2.7-1 4.6-3.7 4.6-6.7M34.6 10.6h-5.8c-6.9 0-12.5 5.1-12.5 12.5 0 6.8 5.6 12.3 12.5 12.3h5.8c6.8 0 13-5.5 13-12.3-.1-7.4-6.3-12.5-13-12.5zm-5.8 23.7c-6.3 0-11.3-5.1-11.3-11.3 0-6.3 5.1-11.4 11.3-11.4 6.3 0 11.4 5.1 11.4 11.4-.1 6.3-5.2 11.3-11.4 11.3z"/><path fill="#004A97" d="M3.5 43.9c0 1 .7 1.1 1.4 1.1 2.8 0 3.8-2.1 3.8-4.1 0-2.5-1.6-4.2-4.1-4.2-.5 0-.8 0-1 .1v7.1zm-1.3-6.2c0-1.2-.6-1.1-1.2-1.1v-.3h3.8c3.4 0 5.2 2.3 5.2 4.6 0 1.3-.8 4.6-5.4 4.6H.9v-.3c.8-.1 1.2-.1 1.2-1v-6.5zM12 37.4c-.3 0-.6-.3-.6-.7 0-.3.3-.6.6-.6s.6.3.6.6c0 .4-.3.7-.6.7m-1.4 7.7h.3c.4 0 .6 0 .6-.4v-3.6c0-.6-.2-.7-.7-.9V40c.6-.2 1.3-.4 1.4-.5.1-.1.2-.1.2-.1.1 0 .1.1.1.2v5c0 .4.3.4.7.4h.2v.3h-2.8v-.2zM14.6 41.2c0-.5-.1-.6-.8-.9v-.2c.6-.2 1.1-.4 1.7-.6 0 0 .1 0 .1.1v.9c.7-.5 1.4-1 2.3-1 1.1 0 1.5.8 1.5 1.8v3.4c0 .4.3.4.7.4h.2v.3h-2.8v-.3h.2c.4 0 .6 0 .6-.4v-3.4c0-.7-.5-1.1-1.2-1.1-.4 0-1.1.3-1.5.6v3.9c0 .4.3.4.7.4h.2v.3h-2.8v-.3h.3c.4 0 .6 0 .6-.4v-3.5zM23.6 41.4c.3 0 .4-.2.4-.3 0-.7-.4-1.2-1.1-1.2-.8 0-1.4.6-1.5 1.5h2.2zm-2.3.4v.8c.1 1.2.9 2.3 1.9 2.3.7 0 1.3-.4 1.8-.9l.2.2c-.6.8-1.4 1.5-2.4 1.5-2.1 0-2.5-2-2.5-2.9 0-2.6 1.7-3.3 2.6-3.3 1.1 0 2.2.7 2.2 2.1v.2H21.3zM25.4 45.1h.4c.4 0 .6 0 .6-.4V41c0-.4-.5-.5-.7-.6v-.2c1-.4 1.5-.7 1.6-.7.1 0 .1 0 .1.2v1.2c.3-.5.9-1.3 1.7-1.3.3 0 .7.2.7.7 0 .4-.2.7-.6.7-.4 0-.4-.3-.9-.3-.2 0-1 .3-1 1.1v3.1c0 .4.3.4.6.4h.7v.3H25.2v-.5zM30.5 43.6c.2.9.7 1.6 1.7 1.6.8 0 1.1-.5 1.1-.9 0-1.5-2.9-1-2.9-3.2 0-.7.6-1.7 2-1.7.4 0 1 .1 1.5.4l.1 1.3h-.3c-.1-.8-.6-1.3-1.4-1.3-.5 0-1 .3-1 .9 0 1.5 3 1.1 3 3.1 0 .9-.7 1.8-2.3 1.8-.5 0-1.1-.2-1.6-.4l-.1-1.5.2-.1zM46.1 38.6h-.3c-.2-1.5-1.3-2.1-2.8-2.1-1.5 0-3.7 1-3.7 4.2 0 2.6 1.9 4.5 3.9 4.5 1.3 0 2.4-.9 2.6-2.3l.3.1-.3 1.9c-.6.3-2 .7-2.9.7-3.1 0-5-2-5-4.9 0-2.7 2.4-4.6 5-4.6 1.1 0 2.1.3 3.1.7l.1 1.8zM46.6 45.1h.2c.4 0 .6 0 .6-.4v-7.3c0-.9-.2-.9-.7-1v-.2c.5-.2 1.1-.4 1.4-.6.1-.1.2-.1.3-.1.1 0 .1.1.1.2v9.1c0 .4.3.4.7.4h.2v.3h-2.8v-.4zM55 44.7c0 .2.1.2.4.2h.5v.3c-.6.1-1.6.3-1.9.4h-.1v-1.1c-.8.6-1.4 1.1-2.3 1.1-.7 0-1.4-.5-1.4-1.6v-3.4c0-.3-.1-.7-.8-.7v-.2c.5 0 1.5-.1 1.7-.1.1 0 .1.1.1.4v3.4c0 .4 0 1.5 1.1 1.5.4 0 1-.3 1.6-.8v-3.5c0-.3-.6-.4-1.1-.5v-.2c1.2-.1 1.9-.2 2-.2.1 0 .1.1.1.2v4.8zM57.6 43.9c0 .5.5 1.3 1.4 1.3 1.4 0 2-1.4 2-2.5 0-1.4-1.1-2.6-2.1-2.6-.5 0-.9.3-1.2.6v3.2zm0-3.5c.5-.4 1.2-.9 2-.9 1.5 0 2.4 1.3 2.4 2.8 0 1.7-1.3 3.4-3.1 3.4-1 0-1.5-.3-1.8-.5l-.4.3-.3-.1c.1-.8.2-1.5.2-2.3v-5.6c0-.9-.2-.9-.7-1v-.2c.5-.2 1.1-.4 1.4-.6.1-.1.2-.1.3-.1.1 0 .1.1.1.2v4.6z"/><path fill="#006AC9" d="M1 53h.1c.3 0 .5 0 .5-.4v-3.7c0-.4-.3-.4-.5-.4H1v-.2h2.2v.2h-.1c-.3 0-.5 0-.5.4v3.7c0 .4.2.4.5.4h.1v.2H1.1V53z"/><path fill="#006AC9" d="M3.2 53.2V53h-.1c-.3 0-.6 0-.6-.4v-3.7c0-.4.3-.4.6-.4h.1v-.2H1.1v.2h.1c.3 0 .6 0 .6.4v3.7c0 .4-.3.4-.6.4h-.1v.2h2.1m0 .1H1.1V53h.1c.3 0 .5 0 .5-.4v-3.7c0-.4-.2-.4-.5-.4H1v-.2h2.2v.2h-.1c-.3 0-.5 0-.5.4v3.7c0 .4.2.4.5.4h.1v.3zM8.1 51.8v-2.7c0-.6-.4-.7-.6-.7h-.2v-.2h1.9v.2h-.1c-.3 0-.6.1-.6.9V53.2h-.3l-3.7-4.1V52c0 .6.1.8.7.8h.1v.2H3.4h.1c.5 0 .6-.3.6-.9v-3c0-.4-.3-.6-.6-.6v-.2h1.4l3.2 3.5z"/><path fill="#006AC9" d="M8.1 51.8zm0 0zm.1 1.5h.2V49.4c0-.9.4-.9.7-.9h.1v-.2H7.4v.2h.1c.2 0 .7.1.7.7v2.7L5 48.3H3.6v.2h.1c.3 0 .7.3.7.7v3c0 .6-.2.9-.7.9h-.1v.2h1.8v-.2h-.2c-.6 0-.7-.2-.7-.9v-3l3.7 4.1zm.3.1h-.3l-3.6-4v2.9c0 .6.1.8.6.8h.2v.2H3.5V53h.1c.5 0 .6-.3.6-.9v-3c0-.4-.3-.6-.6-.6h-.2v-.2h1.5L8 51.8v-2.6c0-.6-.4-.6-.6-.6h-.1v-.2h1.9v.2h-.1c-.3 0-.6 0-.6.9V53.4zM10.3 48.6c-.5 0-.6.1-.7.6h-.2c0-.2.1-.4.1-.6V48h.2c.1.2.2.2.4.2h3.7c.2 0 .4 0 .4-.2h.2c0 .2-.1.4-.1.6v.6l-.2.1c0-.3 0-.7-.5-.7h-1.2v3.8c0 .5.2.6.6.6h.1v.2h-2.4V53h.1c.4 0 .6 0 .6-.6v-3.8h-1.1z"/><path fill="#006AC9" d="M13.1 53.3h-2.4V53h.1c.4 0 .6 0 .6-.6v-3.8h-1.1 1.2v3.8c0 .6-.2.6-.6.6h-.1v.2H12c.3 0 .8 0 1.1.1v-.2H13c-.3 0-.6-.1-.6-.6v-3.8h1.2c.5 0 .5.4.6.7l.2-.1v-.6c0-.2 0-.4.1-.5h-.1c0 .2-.2.2-.4.2h-3.7c-.2 0-.4 0-.4-.2h-.3v.6c0 .2-.1.4-.1.6h.2c.1-.5.2-.7.7-.6-.5 0-.5.1-.6.6h-.4c0-.2.1-.4.1-.6v-.6h.2c0 .2.2.2.4.2h3.7c.2 0 .3 0 .4-.2h.2c0 .2-.1.4-.1.6v.6H14c0-.3 0-.7-.5-.7h-1.1v3.8c0 .5.2.6.6.6h.2l-.1.2zM14.6 53h.1c.3 0 .5 0 .5-.4v-3.7c0-.4-.3-.4-.5-.4h-.1v-.2h3.6v1.1H18c0-.5-.1-.8-.9-.8h-1v1.9h.9c.4 0 .5-.2.6-.6h.2v1.6h-.2c0-.4-.1-.7-.6-.7h-.9v1.7c0 .5.4.5.9.5.9 0 1.2-.1 1.5-.9h.2c-.1.4-.2.8-.2 1.1h-3.8V53z"/><path fill="#006AC9" d="M18.4 53.2c.1-.4.1-.7.2-1.1h-.1c-.2.8-.6.9-1.5.9-.4 0-.9 0-.9-.5v-1.7h.9c.5 0 .5.3.6.7h.2v-.8-.8h-.2c0 .4-.2.6-.6.6h-.9v-1.9h1c.7 0 .9.4.9.8h.2v-.7-.3h-3.5v.2h.1c.3 0 .6 0 .6.4v3.7c0 .4-.3.4-.6.4h-.1v.2h1.9c.5-.1 1.3-.1 1.8-.1m0 .1h-3.8V53h.1c.3 0 .5 0 .5-.4v-3.7c0-.3-.2-.4-.5-.4h-.1v-.2h3.6v1.1l-.2.1c0-.5-.1-.8-.8-.8h-1v1.8h.8c.4 0 .5-.2.5-.6h.2v1.6h-.2c0-.4-.1-.7-.5-.7h-.8v1.6c0 .4.4.4.8.4.9 0 1.2 0 1.4-.8l.2.1c0 .4-.1.8-.2 1.2zM20.5 50.7h.3c.7 0 1.1-.3 1.1-1.1 0-.6-.4-1-1-1h-.4v2.1zm-.9-1.7c0-.5-.3-.5-.5-.5H19v-.2h2.2c.9 0 1.7.2 1.7 1.3 0 .6-.4 1-1 1.3l1.2 1.8c.2.3.3.4.7.4v.2h-1.4c-.5-.7-1-1.5-1.5-2.3h-.5v1.5c0 .5.3.6.6.6h.1v.2h-2.2V53h.1c.3 0 .5-.1.5-.4V49z"/><path fill="#006AC9" d="M20.9 50.7c.7 0 1.1-.2 1.1-1.1 0-.6-.4-1-1-1h-.4v2.1h.3zm-.4 0v-2.2h.4c.6 0 1.1.4 1.1 1.1 0 .9-.4 1.1-1.1 1.1h-.4zm0 .2h.5c.5.8.9 1.6 1.5 2.3h1.4V53c-.3 0-.5-.1-.7-.4L22 50.7c.6-.2 1-.6 1-1.2 0-1-.8-1.2-1.7-1.2h-2.2v.2h.1c.2 0 .5 0 .5.6v3.6c0 .3-.3.4-.5.4H19v.2h2.2v-.2h-.1c-.3 0-.6 0-.6-.6v-1.6zm3.4 2.4h-1.4c-.5-.7-1-1.5-1.5-2.3h-.4v1.5c0 .5.2.5.6.5h.2v.2h-2.2V53h.1c.3 0 .5-.1.5-.4V49c0-.5-.3-.5-.5-.5H19v-.2h2.2c.9 0 1.7.3 1.7 1.3 0 .6-.4 1-1 1.3l1.2 1.8c.2.3.3.4.7.4l.1.2zM28.7 51.8v-2.7c0-.6-.4-.7-.6-.7h-.2v-.2h1.9v.2h-.1c-.3 0-.6.1-.6.9V53.2h-.3l-3.7-4.1V52c0 .6.1.8.7.8h.2v.2h-1.9.1c.5 0 .6-.3.6-.9v-3c0-.4-.3-.6-.7-.6H24v-.2h1.4l3.3 3.5z"/><path fill="#006AC9" d="M28.7 51.8zm0 0zm.1 1.5h.2V49.4c0-.9.4-.9.7-.9h.1v-.2H28v.2h.1c.2 0 .7.1.7.7v2.7l-3.2-3.6h-1.4v.2h.1c.3 0 .7.3.7.7v3c0 .6-.2.9-.7.9h-.1v.2H26v-.2h-.1c-.6 0-.7-.2-.7-.9v-3l3.6 4.1zm.3.1h-.3l-3.6-4v2.9c0 .6.1.8.6.8h.2v.2h-1.9V53h.1c.5 0 .6-.3.6-.9v-3c0-.4-.3-.6-.6-.6H24v-.2h1.5l3.1 3.5v-2.6c0-.6-.4-.6-.6-.6h-.2v-.2h1.9v.2h-.1c-.3 0-.6 0-.6.9v3.2c.1.2.1.4.1.7zM32 49.1l-.7 2h1.3l-.6-2zm-1 3.1c-.1.2-.2.4-.2.6 0 .2.3.2.5.2h.1v.2H29.7V53c.3 0 .5-.2.6-.5l1.1-3.3.3-.9c.2-.1.5-.2.7-.3h.1c0 .1 0 .1.1.2L34 52c.1.2.2.5.3.7.1.2.2.3.5.3v.2h-2.1V53h.1c.2 0 .4 0 .4-.2 0-.1-.1-.3-.1-.5l-.3-.8h-1.6l-.2.7z"/><path fill="#006AC9" d="M32 49.1zm-.6 2h1.3l-.7-2-.6 2zm-.1 0L32 49l.7 2.1h-1.4zm1.4 2.1h2V53c-.2 0-.4-.1-.5-.3-.1-.1-.2-.4-.2-.7l-1.3-3.7c0-.1 0-.1-.1-.2-.1.1-.4.2-.6.3 0 .3-.2.6-.3.9l-1.1 3.3c-.1.3-.4.5-.7.5v.2h1.5v-.2c-.2 0-.6 0-.6-.3 0-.1.1-.3.2-.6l.2-.8h1.7l.3.8c.1.2.1.4.1.5 0 .2-.3.2-.5.2v.3zm2.1.1h-2.1V53h.1c.2 0 .4 0 .4-.2 0-.1-.1-.3-.1-.5l-.3-.8h-1.6l-.2.7c-.1.2-.2.4-.2.5 0 .2.3.2.5.2h.1v.2H29.7V53c.3 0 .5-.2.6-.4l1.1-3.3.3-.9c.2-.1.5-.2.6-.3h.2c0 .1 0 .1.1.2L34 52c.1.3.2.5.3.7.1.2.2.3.4.3h.1v.3zM35.1 48.6c-.5 0-.6.1-.7.6h-.2c0-.2.1-.4.1-.6V48h.2c.1.2.2.2.4.2h3.7c.2 0 .4 0 .4-.2h.2c0 .2-.1.4-.1.6v.6l-.2.1c0-.3-.1-.7-.5-.7h-1.2v3.8c0 .5.2.6.6.6h.1v.2h-2.4V53h.1c.4 0 .6 0 .6-.6v-3.8h-1.1z"/><path fill="#006AC9" d="M37.9 53.3h-2.4V53h.1c.4 0 .5 0 .6-.6v-3.8h-1.1 1.2v3.8c0 .6-.2.6-.6.6h-.1v.2h1.2c.3 0 .8 0 1.1.1v-.2h-.1c-.3 0-.6-.1-.6-.6v-3.8h1.2c.5 0 .5.4.6.7l.2-.1v-.6c0-.2 0-.4.1-.5h-.1c0 .2-.2.2-.4.2h-3.7c-.2 0-.3 0-.4-.2h-.1v.6c0 .2-.1.4-.1.6h.2c.1-.5.2-.7.7-.6-.5 0-.5.1-.6.6h-.3c0-.2.1-.4.1-.6v-.6h.2c0 .2.2.2.4.2h3.7c.2 0 .3 0 .4-.2h.2c0 .2-.1.4-.1.6v.6l-.3.1c0-.3 0-.7-.5-.7h-1.1v3.8c0 .5.2.6.6.6h.2l-.4.1z"/><path fill="#006AC9" d="M39.4 53c.4 0 .6 0 .6-.4v-3.7c0-.4-.3-.4-.5-.4h-.1v-.2h2.2v.2h-.1c-.3 0-.5 0-.5.4v3.7c0 .4.3.4.5.4h.1v.2h-2.1V53z"/><path fill="#006AC9" d="M41.6 53.2V53h-.1c-.3 0-.6 0-.6-.4v-3.7c0-.4.3-.4.6-.4h.1v-.2h-2.1v.2h.1c.3 0 .6 0 .6.4v3.7c0 .4-.3.4-.6.4h-.1v.2h2.1m0 .1h-2.1V53h.1c.3 0 .5 0 .5-.4v-3.7c0-.3-.2-.4-.5-.4h-.1v-.2h2.2v.2h-.1c-.3 0-.5 0-.5.4v3.7c0 .3.2.4.5.4h.1l-.1.3zM44.6 53c1.4 0 1.6-1.2 1.6-2.3 0-1-.6-2.3-1.7-2.3-1.3 0-1.6 1.1-1.6 2.1-.1 1.3.5 2.5 1.7 2.5m-.1-4.8c1.5 0 2.7.9 2.7 2.5s-1.2 2.7-2.7 2.7c-1.5 0-2.7-1-2.7-2.6 0-1.5 1.2-2.6 2.7-2.6"/><path fill="#006AC9" d="M42.8 50.5c0-1 .4-2.1 1.7-2.1 1.2 0 1.8 1.3 1.8 2.3 0 1-.2 2.3-1.7 2.3 1.4 0 1.6-1.2 1.6-2.2 0-1-.6-2.3-1.7-2.3-1.3 0-1.6 1.1-1.7 2 .1 1.3.6 2.5 1.8 2.5-1.2.1-1.8-1.2-1.8-2.5m-1 .3c0-1.5 1.2-2.7 2.7-2.7-1.5.1-2.6 1.2-2.7 2.7.1 1.5 1.2 2.5 2.7 2.5 1.5 0 2.7-1.1 2.7-2.7 0-1.5-1.2-2.4-2.7-2.4 1.5 0 2.8 1 2.8 2.5 0 1.7-1.2 2.8-2.7 2.8-1.6-.1-2.8-1.1-2.8-2.7M52 51.8v-2.7c0-.6-.4-.7-.6-.7h-.2v-.2h1.9v.2H53c-.3 0-.6.1-.6.9V53.2h-.3l-3.7-4.1V52c0 .6.1.8.7.8h.1v.2h-1.9.1c.5 0 .6-.3.6-.9v-3c0-.4-.3-.6-.6-.6h-.1v-.2h1.4l3.3 3.5z"/><path fill="#006AC9" d="M52 51.8zm0 0zm.1 1.5h.2V49.4c0-.9.4-.9.7-.9h.1v-.2h-1.8v.2h.1c.2 0 .7.1.7.7v2.7l-3.2-3.6h-1.4v.2h.1c.3 0 .7.3.7.7v3c0 .6-.2.9-.7.9h-.1v.2h1.8v-.2h-.1c-.6 0-.7-.2-.7-.9v-3l3.6 4.1zm.3.1h-.3l-3.6-4v2.9c0 .6.1.8.6.8h.2v.2h-1.9V53h.1c.5 0 .6-.3.6-.9v-3c0-.4-.3-.6-.6-.6h-.1v-.2h1.5l3.1 3.5v-2.6c0-.6-.4-.6-.6-.6h-.2v-.2h1.9v.2H53c-.3 0-.6 0-.6.9V53.4zM55.3 49.1l-.7 2H56l-.7-2zm-1 3.1c-.1.2-.2.4-.2.6 0 .2.3.2.5.2h.1v.2H53V53c.3 0 .5-.2.6-.5l1.1-3.3.3-.9c.2-.1.5-.2.7-.3h.1c0 .1 0 .1.1.2l1.3 3.7c.1.2.2.5.3.7.1.4.3.4.5.4v.2h-2.1V53h.1c.2 0 .4 0 .4-.2 0-.1-.1-.3-.1-.5l-.3-.8h-1.6l-.1.7z"/><path fill="#006AC9" d="M55.3 49.1zm-.6 2h1.2l-.6-1.9-.6 1.9zm-.1 0l.7-2.1.7 2.1h-1.4zm1.4 2.1h2V53c-.2 0-.4-.1-.5-.3-.1-.2-.2-.5-.3-.7l-1.3-3.7c0-.1 0-.1-.1-.2-.1.1-.4.2-.6.3 0 .3-.2.6-.3.9l-1.1 3.3c-.1.3-.4.5-.6.5v.2h1.5v-.2c-.2 0-.6 0-.6-.3 0-.1.1-.3.2-.6l.2-.8h1.7l.3.8c.1.2.1.4.1.5 0 .2-.3.2-.5.2v.3zm2.1.1H56V53h.1c.2 0 .4 0 .4-.2 0-.1-.1-.3-.1-.5l-.3-.8h-1.6l-.2.7c-.1.2-.2.4-.2.5 0 .2.3.2.5.2h.1v.2H53V53c.3 0 .5-.2.6-.4l1.1-3.3.3-.9c.2-.1.5-.2.7-.3h.2c0 .1 0 .1.1.2l1.3 3.7c.1.3.2.5.3.7.1.2.2.3.4.3h.1v.3zM59.9 52.6c0 .3.2.4.4.4h.9c.3 0 .6-.2.7-.4.1-.2.2-.4.2-.5h.2l-.3 1.2h-3.8V53h.1c.3 0 .5 0 .5-.5v-3.7c0-.4-.3-.4-.5-.4h-.1v-.2h2.2v.2h-.2c-.3 0-.5 0-.5.4v3.8z"/><path fill="#006AC9" d="M62 53.2c.1-.4.2-.8.3-1.1h-.1c0 .2-.1.3-.2.5s-.4.4-.7.4h-.9c-.2 0-.5-.1-.5-.4v-3.7c0-.4.2-.4.5-.4h.1v-.2h-2.2v.2h.1c.3 0 .6 0 .6.4v3.7c0 .5-.3.5-.6.5h-.1v.2h1.9c.6-.1 1.2-.1 1.8-.1m.1.1h-3.8V53h.1c.3 0 .5 0 .5-.4v-3.7c0-.3-.2-.4-.5-.4h-.1v-.2h2.2v.2h-.2c-.3 0-.5 0-.5.4v3.7c0 .3.2.3.4.4h.9c.3 0 .5-.2.7-.4.1-.2.2-.3.2-.5h.2c.1.4 0 .8-.1 1.2zM62.1 48.8c.2 0 .2-.1.2-.2s-.1-.2-.1-.2h-.1v.4zm-.2.4c.1 0 .1 0 .1-.1v-.6c0-.1 0-.1-.1-.1h.4c.1 0 .3.1.3.2s-.1.2-.2.2l.1.2c.1.1.1.2.2.2h-.1c-.1 0-.1-.1-.3-.3h-.1v.2c0 .1 0 0 .1.1h-.4zm.3.2c.3 0 .6-.3.6-.6s-.3-.6-.6-.6-.6.3-.6.6c.1.3.3.6.6.6m0-1.3c.4 0 .8.3.8.8s-.3.7-.8.7-.8-.3-.8-.7.4-.8.8-.8"/><path fill="#004A97" d="M45.3 21.1c0-3.2-1.3-6.1-3.5-8.4-2.1-1.3-4.6-2.1-7.2-2.1h-5.8c-6.9 0-12.5 5.1-12.5 12.5 0 3.1 1.2 5.9 3.1 8.1 2 1.4 4.4 2.4 7 2.8-5.1-1.1-8.9-5.6-8.9-11.1 0-6.3 5.1-11.4 11.3-11.4 6.3 0 11.4 5.1 11.4 11.4 0 6.2-4.9 11.2-11.1 11.3h.5c8.6.1 15.7-5.8 15.7-13.1z"/><path fill="#006AC9" d="M28.7 10.6c-6.9 0-12.5 5.1-12.5 12.5 0 3 1.1 5.8 3 7.9l.3.3c2 1.4 4.3 2.3 6.9 2.8-5.1-1.1-8.9-5.6-8.9-11.1 0-6.3 5.1-11.4 11.3-11.4 6.3 0 11.4 5.1 11.4 11.4 0 6.2-4.9 11.2-11.1 11.3h.5c.5 0 1 0 1.5-.1 6.6-1.6 10.8-8.3 9.6-15.4-.6-3.3-2.2-6.1-4.5-8.1-.5-.1-1-.1-1.5-.1h-6z"/></svg>