<svg xmlns="http://www.w3.org/2000/svg" width="64" height="64" viewBox="0 0 64 64"><path fill="#07A9E2" fill-rule="evenodd" d="M32 46c3.8-3.4 6.2-8.4 6.2-14S35.8 21.5 32 18c-3.3-3-7.8-4.9-12.6-4.9C9 13.1.5 21.6.5 32 .5 42.4 9 50.8 19.4 50.8c4.8.1 9.3-1.8 12.6-4.8z" clip-rule="evenodd"/><path fill="#009DDD" fill-rule="evenodd" d="M.5 32C.5 42.4 9 50.8 19.4 50.8c4.9 0 9.3-1.8 12.6-4.9 3.8-3.4 6.2-8.4 6.2-14S35.8 21.5 32 18c-3.3-3-7.8-4.9-12.6-4.9" clip-rule="evenodd"/><path fill="#0284CC" fill-rule="evenodd" d="M32 18c-3.3-3-7.8-4.9-12.6-4.9h-.9C12.6 17.4 8.8 24.3 8.8 32s3.8 14.6 9.6 18.8h.9c4.9 0 9.3-1.8 12.6-4.9 3.8-3.4 6.2-8.4 6.2-14S35.8 21.5 32 18z" clip-rule="evenodd"/><path fill="#FF2957" fill-rule="evenodd" d="M44.7 13.1c-4.9 0-9.3 1.8-12.7 4.9-.7.6-1.3 1.3-1.9 2h3.8c.5.6 1 1.3 1.4 2h-6.7c-.4.7-.8 1.3-1.1 2h8.9c.3.7.6 1.3.8 2H26.8c-.2.7-.4 1.3-.6 2h11.6c.3 1.3.4 2.6.4 4 0 2.1-.3 4.1-1 6H26.8c.2.7.5 1.3.8 2h8.9c-.3.7-.7 1.4-1.1 2h-6.7c.4.7.9 1.4 1.4 2h3.8c-.6.7-1.2 1.4-1.9 2 3.4 3 7.8 4.9 12.7 4.9 10.4 0 18.8-8.4 18.8-18.8 0-10.5-8.4-19-18.8-19z" clip-rule="evenodd"/><path fill="#ED1C2E" fill-rule="evenodd" d="M44.7 13.1c-4.9 0-9.3 1.8-12.7 4.9-.7.6-1.3 1.3-1.9 2h3.8c.5.6 1 1.3 1.4 2h-6.7c-.4.7-.8 1.3-1.1 2h8.9c.3.7.6 1.3.8 2H26.8c-.2.7-.4 1.3-.6 2h11.6c.3 1.3.4 2.6.4 4 0 2.1-.3 4.1-1 6H26.8c.2.7.5 1.3.8 2h8.9c-.3.7-.7 1.4-1.1 2h-6.7c.4.7.9 1.4 1.4 2h3.8c-.6.7-1.2 1.4-1.9 2 3.4 3 7.8 4.9 12.7 4.9 10.4 0 18.8-8.4 18.8-18.8" clip-rule="evenodd"/><path fill="#0466B5" fill-rule="evenodd" d="M32 46c3.8-3.4 6.2-8.4 6.2-14S35.8 21.5 32 18v28z" clip-rule="evenodd"/><path fill="#FFF" fill-rule="evenodd" d="M57 36.1c0-.3.3-.6.6-.6s.6.3.6.6-.3.6-.6.6-.6-.3-.6-.6zm.6.5c.3 0 .4-.2.4-.5s-.2-.4-.4-.4c-.3 0-.5.2-.5.4s.3.5.5.5zm0-.3h-.1v-.5H57.8l.1.1c0 .1 0 .1-.1.1l.1.2h-.1l-.1-.2h-.1v.3zm0-.3h.1v-.1h-.1v.1z" clip-rule="evenodd"/><path fill="#D1094B" fill-rule="evenodd" d="M32 18c-.7.6-1.3 1.3-1.9 2h3.8c.5.6 1 1.3 1.4 2h-6.7c-.4.7-.8 1.3-1.1 2h8.9c.3.7.6 1.3.8 2H26.8c-.2.7-.4 1.3-.6 2h11.6c.3 1.3.4 2.6.4 4 0 2.1-.3 4.1-1 6H26.8c.2.7.5 1.3.8 2h8.9c-.3.7-.7 1.4-1.1 2h-6.7c.4.7.9 1.4 1.4 2h3.8c-.6.7-1.2 1.4-1.9 2 3.4 3 7.8 4.9 12.7 4.9h.9c5.8-4.2 9.6-11.1 9.6-18.8 0-7.7-3.8-14.6-9.6-18.8h-.9C39.8 13.1 35.4 15 32 18z" clip-rule="evenodd"/><path fill="#FFF" fill-rule="evenodd" d="M17 36.7h-2.4l1.4-7.3-3.2 7.3h-2.1l-.4-7.3-1.4 7.3H6.8l1.8-9.6h3.7l.2 6 2.6-6h3.8L17 36.7z" clip-rule="evenodd"/><path fill="#DCE5E5" fill-rule="evenodd" d="M14.7 32.5l1.4-3.1-1.1 5.8c.1.5.2 1.1.4 1.6H17l1.8-9.6h-3.5c-.4 1.5-.7 3.2-.7 4.9.1.1.1.2.1.4zM43.2 36.6c-.7.2-1.1.3-1.7.3-1.2 0-1.8-.6-1.8-1.7 0-.2 0-.4.1-.7l.1-.8.1-.6 1.1-5.9h2.3l-.3 1.8h1.2l-.3 1.8h-1.2l-.6 3.2c0 .1-.1.3-.1.3 0 .4.3.6.8.6.3 0 .5 0 .6-.1l-.3 1.8zM50.1 29c-.2-.1-.2-.1-.3-.1-.1 0-.2 0-.2-.1h-.3c-.8 0-1.3.3-2 1.3l.2-1.2h-2.1L44 36.7h2.4c.8-4.8 1.2-5.6 2.3-5.6h.3l.3.1.8-2.2zM33.9 31.4c0 1 .6 1.7 1.8 2.1 1 .4 1.1.5 1.1.9 0 .5-.4.7-1.4.7-.7 0-1.4-.1-2.1-.3l-.3 1.8h.1l.4.1h.6c.6.1 1 .1 1.3.1 2.5 0 3.7-.8 3.7-2.6 0-1.1-.5-1.7-1.7-2.2-1-.4-1.1-.5-1.1-.8 0-.4.4-.6 1.2-.6.4 0 1.1 0 1.7.1l.3-1.8c-.6-.1-1.5-.1-2.1-.1-2.6 0-3.5 1.2-3.5 2.6zM24.6 36.7h-1.9v-.8c-.6.6-1.4.9-2.5.9-1.3 0-2.1-.9-2.1-2.1 0-1.9 1.5-3 4.1-3h1c.1-.3.1-.4.1-.5 0-.5-.4-.7-1.5-.7-.7 0-1.4.1-1.9.2l-.3.1h-.2l.3-1.7c1.2-.3 1.9-.4 2.8-.4 2 0 3.1.8 3.1 2.3 0 .4 0 .7-.2 1.6l-.5 2.8-.1.5-.1.4v.3l-.1.1zm-1.7-3.5h-.5c-1.3 0-2 .4-2 1.2 0 .5.3.8.8.8 1 0 1.7-.8 1.7-2zM32.3 36.5c-.8.2-1.6.3-2.4.3-2.6 0-4-1.2-4-3.5 0-2.7 1.7-4.6 4.1-4.6 1.9 0 3.1 1.1 3.1 2.8 0 .6-.1 1.1-.3 1.9h-4.7v.3c0 .9.7 1.4 2 1.4.9 0 1.6-.1 2.4-.5l-.2 1.9zm-1.2-4.6v-.4c0-.6-.4-1-1.1-1-.7 0-1.3.5-1.5 1.4h2.6z" clip-rule="evenodd"/><path fill="#FFF" fill-rule="evenodd" d="M57.4 33.2c-.4 2.6-2.2 3.7-4.6 3.7-2.6 0-3.7-1.6-3.7-3.6 0-2.7 1.8-4.6 4.6-4.6 2.4 0 3.7 1.6 3.7 3.5v1zm-2.5-1c0-.8-.3-1.5-1.3-1.5-1.2 0-1.9 1.4-1.9 2.7 0 1 .5 1.7 1.3 1.7.5 0 1.6-.7 1.8-1.9.1-.4.1-.7.1-1z" clip-rule="evenodd"/><path fill="#FFF" fill-rule="evenodd" d="M49.2 34.2c.1-.7.2-1.5.2-2.2v-.2c-.1.5-.2 1-.2 1.6-.1.2-.1.5 0 .8z" clip-rule="evenodd"/></svg>