<svg xmlns="http://www.w3.org/2000/svg" width="120" height="76" viewBox="0 0 120 76"><g fill="none" fill-rule="evenodd"><path fill="#F4F4F4" d="M111.998561,0 L8.0014394,0 C3.58236644,0 0,3.58906554 0,8.00758637 L0,67.9924136 C0,72.4148815 3.59136164,76 8.0014394,76 L111.998561,76 C116.417634,76 120,72.4109345 120,67.9924136 L120,8.00758637 C120,3.58511853 116.408638,0 111.998561,0 Z"/><g transform="translate(6 24)"><path fill="#2C97DE" d="M106.821702,0.10448019 L103.670528,0.10448019 C103.668751,0.10448019 103.666975,0.105056894 103.66579,0.105056894 L103.664014,0.10448019 C102.942696,0.10448019 102.210719,0.642544644 102.006405,1.32709181 C101.998114,1.35477358 101.9839,1.38130195 101.977386,1.41013713 C101.977386,1.41013713 101.902175,1.74404851 101.771888,2.32132881 L97.4433904,21.4275189 C97.3433061,21.8594699 97.2763858,22.1409013 97.2562505,22.2141426 L97.2645415,22.2245233 C97.1147112,22.892346 97.5268926,23.4448281 98.203794,23.5065354 L98.2126773,23.5192228 L101.483479,23.5192228 C102.200059,23.5192228 102.927298,22.9863487 103.138127,22.3104521 C103.148195,22.27758 103.164184,22.2470147 103.171883,22.2141426 L107.893611,1.40898372 L107.886504,1.40667691 C108.046995,0.695024671 107.576184,0.10448019 106.821702,0.10448019 Z M90.6585277,18.8823546 C90.2214733,19.1505217 89.7595458,19.3800498 89.2757064,19.5755523 C88.6254546,19.831032 88.0089591,19.9648272 87.4386564,19.9648272 C86.563363,19.9648272 85.8906071,19.8442962 85.4357863,19.5865096 C84.9803731,19.3419873 84.7417106,18.9169568 84.7494094,18.3085345 C84.7494094,17.6061095 84.9158217,17.0611246 85.2604907,16.6337872 C85.6075285,16.2225976 86.1233475,15.8915697 86.7629394,15.6447406 C87.398978,15.4348205 88.1812936,15.2618094 89.084421,15.1378181 C89.8874642,15.0392018 91.4751918,14.8610004 91.6783214,14.859847 C91.8814511,14.8581169 92.016476,14.7491199 91.9258672,15.276227 C91.8855966,15.5051783 91.4272224,17.3379423 91.2169862,18.171279 C91.1559881,18.4209917 90.8148724,18.7848916 90.6585277,18.8823546 C90.6585277,18.8823546 90.8148724,18.7848916 90.6585277,18.8823546 Z M96.8898108,6.00110306 C95.55259,5.27445653 93.4608877,4.90709634 90.598714,4.90709634 C89.1833209,4.90709634 87.7608212,5.01782343 86.3335837,5.23351057 C85.2859559,5.38979725 85.1781729,5.41574891 84.5273289,5.55358107 C83.1883315,5.83731924 82.9816485,7.14297618 82.9816485,7.14297618 L82.5517007,8.86501311 C82.3077082,9.96651698 82.9520378,9.92095739 83.2392619,9.83560526 C83.8237778,9.66374759 84.1406127,9.49304332 85.3333331,9.23006649 C86.4733464,8.97804701 87.6779111,8.78946494 88.6390756,8.79696209 C90.0485466,8.79696209 91.1204552,8.94748172 91.8328895,9.23698693 C92.545916,9.53975632 92.8988759,10.0553293 92.8988759,10.7929332 C92.9012448,10.9682511 92.9059825,11.1337651 92.8408389,11.2785177 C92.7822096,11.4134663 92.6696888,11.5438013 92.3327187,11.5882075 C90.3209653,11.7047016 88.8771459,11.8834797 87.1384035,12.1303089 C85.4227575,12.3656039 83.9214933,12.7687197 82.6665903,13.3269688 C81.3287773,13.9048258 80.3279345,14.6781853 79.6380043,15.6580048 C78.9664329,16.6424378 78.6288705,17.8344841 78.6270938,19.2387574 C78.6270938,20.5657523 79.1168554,21.648225 80.0643989,22.4884821 C81.0231945,23.3177819 82.2703987,23.7283949 83.7793617,23.7283949 C84.7221675,23.7220511 85.4600671,23.6557302 85.9889148,23.5271253 C86.5124326,23.3985204 87.0833276,23.2157054 87.6862021,22.9613791 C88.1368775,22.7779873 88.6230858,22.5127037 89.1365359,22.1799457 C89.6505783,21.8460343 90.0064993,21.6090092 90.4630968,21.3177738 L90.4796789,21.3454556 L90.3511683,21.8973609 C90.3505761,21.9025513 90.3428773,21.9054348 90.3428773,21.9106251 L90.3470228,21.9210058 C90.2001535,22.585945 90.6105583,23.1390038 91.2868675,23.2041713 L91.2951585,23.2157054 L91.3549722,23.2157054 L91.357341,23.2185889 C91.8062398,23.2185889 93.3471824,23.2180122 94.0673155,23.2157054 L94.5701058,23.2157054 C94.6032698,23.2157054 94.6068231,23.2059014 94.6198518,23.1984043 C95.3103742,23.1159356 95.9724702,22.5680672 96.1282227,21.9106251 L98.7002111,11.1003162 C98.7594326,10.84599 98.8062176,10.5524478 98.8340517,10.2144995 C98.8660312,9.87309099 98.903933,9.59223634 98.8926809,9.38923668 C98.8986031,7.85924204 98.2234783,6.72832629 96.8898108,6.00110306 L96.8898108,6.00110306 Z M81.4020561,3.5387501 C80.963225,2.70714351 80.3005368,2.03759064 79.462553,1.51625059 C78.6032494,0.996063948 77.5822713,0.633317387 76.4002107,0.421667167 C75.2311789,0.222127723 73.841251,0.107940411 72.2576689,0.10448019 L64.8893336,0.107940411 C64.1307066,0.120627891 63.3862927,0.700791707 63.2109971,1.41532746 L58.2571212,22.4084917 C58.0764957,23.1218741 58.5692183,23.7164555 59.3142244,23.7124186 L62.8497462,23.7060748 C63.59949,23.7124186 64.3634469,23.1218741 64.5405191,22.4084917 L65.7356084,17.3138922 C65.9032052,16.5999331 66.6653855,16.0018915 67.4275658,16.0122722 L68.4325542,16.0122722 C72.7450616,16.0122722 76.0887058,15.1495236 78.4830299,13.4321003 C80.8714317,11.7060264 82.0736276,9.4418881 82.0736276,6.62584444 C82.0659288,5.39631238 81.8509549,4.36055272 81.4020561,3.5387501 Z M73.8003882,10.4049831 C72.7450616,11.152391 71.2639326,11.5272483 69.3581857,11.5272483 L68.481708,11.5272483 C67.7236732,11.5358988 67.2339116,10.9390106 67.4139449,10.2233215 L68.4704559,5.76770949 C68.627985,5.0629777 69.3972719,4.46320596 70.1446469,4.468973 L71.3024266,4.46320596 C72.6538605,4.468973 73.664771,4.68927377 74.3629922,5.1269918 C75.049369,5.56990016 75.3821937,6.25675414 75.3875236,7.17198275 C75.3904847,8.56702874 74.8604525,9.64027413 73.8003882,10.4049831"/><path fill="#265697" d="M56.6106784,4.90719087 C55.9397514,4.90719087 55.0597522,5.4391217 54.6431877,6.08197893 C54.6431877,6.08197893 50.1552445,13.6198154 49.7144549,14.3730831 C49.4748382,14.7780934 49.2320616,14.520641 49.1915111,14.3699874 C49.15886,14.1868299 47.8006805,6.13150886 47.8006805,6.13150886 C47.6479577,5.48297633 46.9564922,4.92628054 46.0917653,4.92886022 L43.293252,4.93298771 C42.6186386,4.93298771 42.1978611,5.46233885 42.3479507,6.10210047 C42.3479507,6.10210047 44.4871229,17.981029 44.904214,20.7748267 C45.112233,22.3200574 44.8826222,22.5940198 44.8826222,22.5940198 L42.1093872,27.3313513 C41.7033552,27.9736926 41.9255932,28.4999482 42.5970468,28.4999482 L45.840036,28.4973685 C46.5114896,28.4973685 47.4009681,27.9736926 47.8006805,27.3303195 L60.2765517,6.65828032 C60.2765517,6.65828032 61.4698959,4.89222871 60.3692386,4.90719087 C59.6187905,4.91750961 56.6106784,4.90719087 56.6106784,4.90719087 Z M33.1878701,18.8823546 C32.7508156,19.1505217 32.2894804,19.3788964 31.805641,19.5749756 C31.1553892,19.8293019 30.5359326,19.9642505 29.9674065,19.9642505 C29.0944821,19.9642505 28.4199495,19.8431427 27.9645364,19.5865096 C27.5097155,19.3414106 27.2698686,18.9163801 27.2775674,18.3073811 C27.2775674,17.6066862 27.4457563,17.0599712 27.7898331,16.6332105 C28.1374631,16.2214442 28.6509132,15.8898396 29.2905051,15.6435872 C29.9283204,15.4325136 30.7130048,15.2618094 31.6131712,15.1378181 C32.4162143,15.0392018 34.0057186,14.8615771 34.208256,14.8586936 C34.409609,14.8581169 34.5452262,14.7479665 34.4546173,15.2750736 C34.4155312,15.5040249 33.9565648,17.3379423 33.7463285,18.1707023 C33.6829616,18.4215684 33.3418459,18.7854684 33.1878701,18.8823546 C33.1878701,18.8823546 33.3418459,18.7854684 33.1878701,18.8823546 Z M39.4191532,6.00052635 C38.0819324,5.27387982 35.9908223,4.90709634 33.1286486,4.90709634 C31.7126633,4.90709634 30.2907558,5.01667002 28.8629261,5.23293387 C27.8135217,5.38806714 27.7081074,5.4145955 27.0566713,5.55242766 C25.7170816,5.83731924 25.5109909,7.14182277 25.5109909,7.14182277 L25.081043,8.86501311 C24.8376428,9.96594027 25.4825646,9.92038069 25.7686043,9.83502856 C26.3519358,9.66317089 26.6705473,9.49304332 27.8632677,9.22891308 C29.0015044,8.97804701 30.2078457,8.79004164 31.1678257,8.79638538 C32.5784811,8.79638538 33.6492053,8.94632832 34.3616396,9.23583352 C35.0752583,9.53860291 35.4264416,10.0553293 35.4264416,10.7923565 C35.4311794,10.9676744 35.4347327,11.1337651 35.3713657,11.2773642 C35.311552,11.4134663 35.1978468,11.5432246 34.8608766,11.5870541 C32.8514921,11.7052783 31.4082649,11.8834797 29.6665615,12.1303089 C27.9509155,12.3656039 26.4502434,12.7687197 25.1947483,13.3263921 C23.8569352,13.9042491 22.8572768,14.6787621 22.1685311,15.6580048 C21.4945908,16.6418611 21.1576206,17.8339074 21.1564362,19.2387574 C21.1564362,20.5651756 21.64679,21.648225 22.5931491,22.4879054 C23.5525369,23.3172052 24.7985566,23.7283949 26.3075197,23.7283949 C27.2509177,23.7220511 27.988225,23.6545768 28.5188494,23.5271253 C29.041775,23.397367 29.6132621,23.2157054 30.2137678,22.9613791 C30.6662199,22.7779873 31.1512437,22.5115503 31.6652861,22.179369 C32.178144,21.8460343 32.5358417,21.6090092 32.9942159,21.3177738 L33.008429,21.3448789 L32.8799184,21.8962075 C32.878734,21.9013979 32.8716274,21.9048581 32.8716274,21.9112018 L32.8769574,21.9198524 C32.7300881,22.5865217 33.1393085,23.1390038 33.8162099,23.2030179 L33.8245009,23.2157054 L33.8837223,23.2157054 L33.885499,23.2197423 C34.3355822,23.2197423 35.877117,23.2174355 36.5954735,23.2157054 L37.098856,23.2157054 C37.1326122,23.2157054 37.1373499,23.204748 37.1480098,23.1978276 C37.8403088,23.1130521 38.5000359,22.5663371 38.6575651,21.9112018 L41.2295535,11.0997395 C41.2875905,10.84599 41.3349677,10.5524478 41.3610252,10.2150762 C41.3953736,9.87193759 41.4326831,9.59223634 41.4226155,9.38981338 C41.4285376,7.85866534 40.7522285,6.72774959 39.4191532,6.00052635 Z M23.3311809,3.5387501 C22.8923498,2.70714351 22.2296616,2.03759064 21.3916778,1.51625059 C20.5323742,0.996063948 19.5113961,0.633317387 18.3293355,0.421667167 C17.1603037,0.222127723 15.7703758,0.107940411 14.1867937,0.10448019 L6.81845839,0.107940411 C6.05983136,0.120627891 5.31541748,0.700791707 5.14012192,1.41532746 L0.186245949,22.4084917 C0.00562046491,23.1218741 0.498343096,23.7164555 1.24334919,23.7124186 L4.77887096,23.7060748 C5.52861477,23.7124186 6.29257173,23.1218741 6.46964393,22.4084917 L7.6647332,17.3138922 C7.83232996,16.5999331 8.59451028,16.0018915 9.3566906,16.0122722 L10.3616789,16.0122722 C14.6741864,16.0122722 18.0178306,15.1495236 20.4121546,13.4321003 C22.8005565,11.7060264 24.0027524,9.4418881 24.0027524,6.62584444 C23.9950536,5.39631238 23.7800796,4.36055272 23.3311809,3.5387501 Z M15.729513,10.4049831 C14.6741864,11.152391 13.1930574,11.5272483 11.2873105,11.5272483 L10.4108328,11.5272483 C9.65279795,11.5358988 9.16303639,10.9390106 9.34306966,10.2233215 L10.3995807,5.76770949 C10.5571098,5.0629777 11.3263967,4.46320596 12.0737716,4.468973 L13.2315514,4.46320596 C14.5829853,4.468973 15.5938958,4.68927377 16.292117,5.1269918 C16.9784938,5.56990016 17.3113185,6.25675414 17.3166484,7.17198275 C17.3196095,8.56702874 16.7895773,9.64027413 15.729513,10.4049831"/></g></g></svg>